<?xml version="1.0" standalone="no"?>
<!DOCTYPE svg PUBLIC "-//W3C//DTD SVG 20010904//EN"
 "http://www.w3.org/TR/2001/REC-SVG-20010904/DTD/svg10.dtd">
<svg version="1.0" xmlns="http://www.w3.org/2000/svg"
 width="2138.000000pt" height="690.000000pt" viewBox="0 0 2138.000000 690.000000"
 preserveAspectRatio="xMidYMid meet">
<metadata>
Created by potrace 1.15, written by Peter Selinger 2001-2017
</metadata>
<g transform="translate(0.000000,690.000000) scale(0.100000,-0.100000)"
fill="#000000" stroke="none">
<path d="M9622 4659 c-101 -17 -172 -67 -244 -176 -87 -130 -1418 -2221 -1418
-2227 0 -3 120 -6 268 -6 l267 0 590 938 c325 515 595 936 600 935 8 -2 645
-1018 645 -1029 0 -2 -274 -5 -609 -6 l-610 -3 132 -205 132 -205 624 -5 623
-5 126 -207 125 -208 269 0 c147 0 268 2 268 4 0 6 -1353 2123 -1427 2234 -94
141 -209 195 -361 171z"/>
<path d="M20007 4646 c-113 -31 -188 -121 -195 -232 -6 -89 12 -145 64 -203
62 -69 127 -95 221 -88 59 4 80 11 117 36 48 33 83 74 109 129 23 47 17 165
-10 217 -61 115 -188 174 -306 141z m126 -57 c47 -13 115 -72 134 -116 21 -51
17 -133 -10 -184 -67 -127 -247 -147 -341 -37 -137 160 14 394 217 337z"/>
<path d="M19970 4400 l0 -150 30 0 c30 0 30 1 30 55 0 51 2 55 23 55 18 0 29
-12 50 -55 24 -49 30 -55 57 -55 16 0 30 3 30 8 0 4 -13 30 -29 59 l-29 52 24
22 c26 25 32 75 13 111 -16 29 -70 48 -139 48 l-60 0 0 -150z"/>
<path d="M2895 4640 l-800 -5 -98 -27 c-216 -59 -394 -162 -548 -317 -136
-136 -222 -270 -283 -438 -162 -453 -38 -960 314 -1286 179 -165 418 -277 660
-307 68 -8 325 -10 905 -7 881 4 840 1 1021 62 160 54 325 156 449 279 475
471 475 1234 0 1702 -208 204 -453 317 -745 343 -41 3 -435 4 -875 1z m899
-434 c418 -80 696 -497 610 -914 -66 -322 -324 -565 -649 -612 -56 -8 -300
-10 -820 -8 -682 4 -745 5 -805 22 -153 44 -269 114 -377 230 -266 284 -272
740 -15 1031 114 129 288 227 450 255 26 4 381 8 789 9 608 1 755 -2 817 -13z"/>
<path d="M5120 3445 l0 -1195 230 0 230 0 0 985 0 986 808 -3 807 -3 57 -27
c80 -37 152 -107 191 -187 30 -61 32 -73 32 -166 0 -91 -3 -106 -31 -165 -38
-80 -105 -149 -182 -187 l-57 -28 -700 -5 -700 -5 310 -271 c171 -149 478
-418 684 -597 l375 -327 333 0 334 0 -453 380 c-249 210 -454 385 -456 390 -2
6 55 10 145 10 171 0 237 10 344 51 239 92 421 298 490 554 30 112 30 288 0
400 -73 274 -274 482 -556 577 l-70 23 -1082 3 -1083 3 0 -1196z"/>
<path d="M12166 4624 c-687 -124 -1124 -809 -946 -1486 111 -425 439 -742 890
-860 84 -22 95 -22 885 -25 l800 -3 132 208 131 207 -891 5 -892 6 -75 22
c-321 98 -539 365 -566 693 -32 379 239 736 618 813 66 14 179 16 790 16 l713
0 125 196 c69 108 129 203 133 210 12 21 -1731 19 -1847 -2z"/>
<path d="M14270 3552 c0 -1166 -1 -1140 49 -1211 12 -17 43 -43 69 -58 l47
-28 1085 -2 1085 -3 132 207 c73 114 131 209 129 210 -2 2 -483 3 -1070 3
l-1066 0 0 937 c0 516 0 959 0 986 l0 47 -230 0 -230 0 0 -1088z"/>
<path d="M17755 4624 c-419 -74 -786 -388 -920 -788 -112 -333 -76 -697 97
-991 170 -288 426 -477 768 -567 84 -22 95 -22 885 -25 l800 -3 132 208 c129
202 131 207 105 210 -15 1 -416 3 -892 5 -863 3 -865 3 -938 25 -155 47 -292
136 -388 250 -51 62 -139 221 -146 267 -3 20 3 20 979 23 l981 2 131 203 c72
112 131 207 131 210 0 4 -502 7 -1115 7 l-1114 0 14 41 c66 186 212 350 390
438 159 79 111 75 945 78 l745 4 110 171 c61 94 121 188 134 209 l23 39 -888
-1 c-717 -1 -904 -4 -969 -15z"/>
</g>
</svg>
